<svg viewBox="0 0 32 32" xmlns="http://www.w3.org/2000/svg"><path d="M16.482.567c-8.376 0-15.191 6.8-15.191 15.159 0 8.358 6.815 15.158 15.191 15.158s15.191-6.8 15.191-15.158c0-8.359-6.814-15.159-15.191-15.159z"/><path d="M16.482.567c-8.376 0-15.191 6.8-15.191 15.159 0 8.358 6.815 15.158 15.191 15.158s15.191-6.8 15.191-15.158c0-8.359-6.814-15.159-15.191-15.159z" fill="none"/><path d="M18.491 2.071c.737.035 1.401.17 2 .228 1.476.615 2.579 1.054 3.671 1.629 1.056.601 2.184 1.26 3.219 2.603.946 1.155 1.669 2.225 2.196 3.379.51 1.154.931 2.36 1.042 3.799.194.208.33.67.366 1.282.087.61.011 1.361-.054 2.144-.202 1.572-.785 3.173-1.013 4.253-.547 1.346-.771 2.167-.135 1.212-1.012 1.815-.96 1.207-1.913 2.634.015.009.195-.581.195-.581-.354.435-.883.785-1.337 1.352l-.471.704-1.12.812c-.33.27-.655.505-.994.732-.333.236-.669.486-1.077.68-.401.205-.833.438-1.372.574 1.412-.354-.577.338-.375.443-.336.083-1.665.325-1.229.167-1.816.384-3.58.81-4.644.405 0 0-.698.056-.697.036-1.195-.032-2.1-.392-3.103-.787l-.179.056c-.711-.155-1.92-.743-2.402-1.158-1.615-.967-3.578-2.358-4.869-3.913-.566-.815-.686-1.069-.907-1.237-.197-.183-.432-.32-.851-1.134-.248-.525-.522-1.267-.788-1.955-.208-.705-.385-1.366-.371-1.727.386 1.564.733 1.684 1.314 3.236-.09-.307.242.313.531.83.314.505.618.885.298.227-.879-1.311-1.518-3.004-1.815-4.72-.17-.858-.201-1.721-.257-2.55.027-.828.004-1.625.086-2.358.135.129.293-.759.601-1.802.129-.528.366-1.071.525-1.582.2-.495.409-.926.534-1.221l.111-.033.836-1.335c.345-.432.648-1.001 1.217-1.66 1.362-1.57 3.063-2.838 4.718-3.432 1.192-.491 2.522-.907 3.705-1.237 1.188-.312 2.236-.463 2.8-.599-1.614-.114-3.18.192-4.573.619-1.379.492-2.614 1.024-3.763 1.483 1.998-1.085 2.118-1.167 3.726-1.925 0 0-.23.045-.458.103l-.458.113.699-.324c-.411.012.54-.375.403-.437-.03-.092-2.678.957-2.653 1.013 1.415-.571.55-.021.212.271l-.657.294c-.321.161-.63.347-.63.347.315-.131 1.089-.54.233.054-.25.139-.53.321-.82.502-.282.188-.555.407-.835.562 0 0 .772-.882.793-.858-1.337 1.132-2.657 1.682-3.696 3.17l-.522.282-.504.688c-.246.347-.451.722-.451.722l.028-.21-.549.869c-.247.451-.472.915-.472.915-.463 1.014-.332 1.241-.343 1.443-.316.788-.433 1.599-.582 1.915l.102-.994-.275.876c.202-.596-.11.759-.048.996l-.185 1.092-.047.539c-.028.264-.064.431-.158 1.074.078.664.071 1.406.139 1.986.079.579.15 1.002.252 1.021.288 2.415 1.388 4.853 2.759 6.708l.707.735c.84 1.075 1.576 1.757 2.374 2.366.814.59 1.669 1.144 2.935 1.762l-.227-.045a367.656 367.656 0 001.228.444l.234.061c.484.208.904.371 1.296.497l1.152.25c.376.095.776.119 1.223.19l.718.12.841.092c.329.024.635.055.922.057l.8-.046c.495-.031.914-.084 1.27-.19.714-.18 1.192-.37 1.563-.62 1.192-.365 2.693-.823 3.712-1.319l-.623.403.896-.323c1.367-.894 1.542-.825 3.083-2.301 2.16-1.972 1.432-2.024 2.061-3.041 0 0 .112-.128.26-.334l.56-.753c.216-.269.364-.578.506-.795l.222-.37-.077.031c.225-.786.241-1.104.464-1.644.117-.268.197-.62.343-1.125.167-.501.267-1.186.406-2.127l-.192.152c.293-1.25.067-1.818-.047-3.428a14.087 14.087 0 01-.095-.858 6.925 6.925 0 00-.18-1.22c-.148-.88-.497-1.797-.855-2.405-.28-.658-.525-1.24-.865-1.704a7.705 7.705 0 00-.98-1.258c-.332-.38-.677-.727-1.064-1.068l-.57-.55c-.21-.176-.424-.364-.644-.569-1.011-1.065-2.067-1.352-2.158-1.723l.226.134-.325-.519-.155.137c-.725-.518-1.913-.966-2.568-1.405 0 0-.514-.106-1.039-.128l-.71-.055c-.191-.019-.321-.016-.321-.016.492.076 1.021.244 1.55.403l-.037-.069c.501.164 1.732.565 2.232.937l-.686-.259c.735.406.066.186-.153.114-1.527-.664-1.159-.363-2.386-.631-.265-.107-.791-.234-.584-.249-.373-.027-1.035-.192-1.628-.24-.594-.037-1.104-.05-1.137.047l-.147-.035c.124.18.391.367.744.556.356.185.796.372 1.266.629z" fill="red"/><path d="M18.52 24.493h-4.528s.006-1.344 0-2.265c-3.099.667-3.964-1.699-3.964-1.699-.566-1.132-1.132-1.699-1.132-1.699-1.132-.673 0-.566 0-.566 1.132 0 1.699 1.132 1.699 1.132.994 1.687 2.762 1.416 3.397 1.132 0-.566.248-1.422.566-1.699-2.473-.279-4.532-1.699-4.532-4.53s.568-3.397 1.135-3.964c-.114-.279-.588-1.311.018-2.831 0 0 1.113 0 2.245 1.699.561-.561 2.265-.566 2.832-.566.565 0 2.269.005 2.83.566 1.132-1.699 2.248-1.699 2.248-1.699.605 1.52.132 2.552.017 2.831.566.566 1.132 1.132 1.132 3.964s-2.056 4.251-4.53 4.53c.319.276.566 1.251.566 1.699l.001 3.965z" fill="#FFF"/></svg>